<svg width="55" height="54" viewBox="0 0 55 54" fill="none" xmlns="http://www.w3.org/2000/svg">
<rect x="0.5" width="54" height="54" rx="27" fill="#E5F6FF"/>
<path d="M33.75 38.5625H21.25C16.6875 38.5625 14.0625 35.9375 14.0625 31.375V22.625C14.0625 18.0625 16.6875 15.4375 21.25 15.4375H33.75C38.3125 15.4375 40.9375 18.0625 40.9375 22.625V31.375C40.9375 35.9375 38.3125 38.5625 33.75 38.5625ZM21.25 17.3125C17.675 17.3125 15.9375 19.05 15.9375 22.625V31.375C15.9375 34.95 17.675 36.6875 21.25 36.6875H33.75C37.325 36.6875 39.0625 34.95 39.0625 31.375V22.625C39.0625 19.05 37.325 17.3125 33.75 17.3125H21.25Z" fill="#02233B"/>
<path d="M27.5 31.6875C24.9125 31.6875 22.8125 29.5875 22.8125 27C22.8125 24.4125 24.9125 22.3125 27.5 22.3125C30.0875 22.3125 32.1875 24.4125 32.1875 27C32.1875 29.5875 30.0875 31.6875 27.5 31.6875ZM27.5 24.1875C25.95 24.1875 24.6875 25.45 24.6875 27C24.6875 28.55 25.95 29.8125 27.5 29.8125C29.05 29.8125 30.3125 28.55 30.3125 27C30.3125 25.45 29.05 24.1875 27.5 24.1875Z" fill="#02233B"/>
<path d="M18.125 25.4375C17.6125 25.4375 17.1875 25.0125 17.1875 24.5V22.625C17.1875 20.3875 19.0125 18.5625 21.25 18.5625H23.125C23.6375 18.5625 24.0625 18.9875 24.0625 19.5C24.0625 20.0125 23.6375 20.4375 23.125 20.4375H21.25C20.05 20.4375 19.0625 21.425 19.0625 22.625V24.5C19.0625 25.0125 18.6375 25.4375 18.125 25.4375Z" fill="#02233B"/>
<path d="M36.875 25.4375C36.3625 25.4375 35.9375 25.0125 35.9375 24.5V22.625C35.9375 21.425 34.95 20.4375 33.75 20.4375H31.875C31.3625 20.4375 30.9375 20.0125 30.9375 19.5C30.9375 18.9875 31.3625 18.5625 31.875 18.5625H33.75C35.9875 18.5625 37.8125 20.3875 37.8125 22.625V24.5C37.8125 25.0125 37.3875 25.4375 36.875 25.4375Z" fill="#02233B"/>
<path d="M23.125 35.4375H21.25C19.0125 35.4375 17.1875 33.6125 17.1875 31.375V29.5C17.1875 28.9875 17.6125 28.5625 18.125 28.5625C18.6375 28.5625 19.0625 28.9875 19.0625 29.5V31.375C19.0625 32.575 20.05 33.5625 21.25 33.5625H23.125C23.6375 33.5625 24.0625 33.9875 24.0625 34.5C24.0625 35.0125 23.6375 35.4375 23.125 35.4375Z" fill="#02233B"/>
<path d="M33.75 35.4375H31.875C31.3625 35.4375 30.9375 35.0125 30.9375 34.5C30.9375 33.9875 31.3625 33.5625 31.875 33.5625H33.75C34.95 33.5625 35.9375 32.575 35.9375 31.375V29.5C35.9375 28.9875 36.3625 28.5625 36.875 28.5625C37.3875 28.5625 37.8125 28.9875 37.8125 29.5V31.375C37.8125 33.6125 35.9875 35.4375 33.75 35.4375Z" fill="#02233B"/>
</svg>
