<svg width="55" height="54" viewBox="0 0 55 54" fill="none" xmlns="http://www.w3.org/2000/svg">
<rect x="0.5" width="54" height="54" rx="27" fill="#E5F6FF"/>
<path d="M32.575 32.9375C32.5625 32.9375 32.55 32.9375 32.525 32.9375H20.45C17.1625 32.7125 15.6875 30.1875 15.6875 27.9375C15.6875 25.9625 16.825 23.775 19.3 23.125C18.65 20.4125 19.25 17.8749 21.0125 16.0249C23.0625 13.8749 26.3375 13.025 29.175 13.9C31.75 14.6875 33.5625 16.7874 34.2375 19.6999C36.475 20.2374 38.2625 21.9375 38.975 24.2875C39.7625 26.8625 39.0375 29.4999 37.1 31.1874C35.8875 32.3124 34.275 32.9375 32.575 32.9375ZM20.5 24.825C18.4875 24.9875 17.5875 26.5 17.5875 27.9375C17.5875 29.3875 18.5 30.9125 20.5375 31.0625H32.55C32.5625 31.0625 32.575 31.0625 32.5875 31.0625C33.8125 31.0625 34.9875 30.6124 35.875 29.7874C37.525 28.3499 37.6375 26.2875 37.2 24.825C36.75 23.3625 35.5125 21.7124 33.3375 21.4374C32.925 21.3874 32.6 21.075 32.525 20.6625C32.1 18.1 30.7125 16.3375 28.6375 15.7C26.5 15.05 23.9375 15.7125 22.3875 17.3375C20.875 18.925 20.525 21.1375 21.4 23.5875C21.575 24.075 21.325 24.6124 20.8375 24.7874C20.725 24.8124 20.625 24.8375 20.5 24.825Z" fill="#02233B"/>
<path d="M27.5 36.6875C26.9875 36.6875 26.5625 36.2625 26.5625 35.75V32C26.5625 31.4875 26.9875 31.0625 27.5 31.0625C28.0125 31.0625 28.4375 31.4875 28.4375 32V35.75C28.4375 36.2625 28.0125 36.6875 27.5 36.6875Z" fill="#02233B"/>
<path d="M27.5 41.6875C25.6 41.6875 24.0625 40.15 24.0625 38.25C24.0625 36.35 25.6 34.8125 27.5 34.8125C29.4 34.8125 30.9375 36.35 30.9375 38.25C30.9375 40.15 29.4 41.6875 27.5 41.6875ZM27.5 36.6875C26.6375 36.6875 25.9375 37.3875 25.9375 38.25C25.9375 39.1125 26.6375 39.8125 27.5 39.8125C28.3625 39.8125 29.0625 39.1125 29.0625 38.25C29.0625 37.3875 28.3625 36.6875 27.5 36.6875Z" fill="#02233B"/>
<path d="M35 39.1875H30C29.4875 39.1875 29.0625 38.7625 29.0625 38.25C29.0625 37.7375 29.4875 37.3125 30 37.3125H35C35.5125 37.3125 35.9375 37.7375 35.9375 38.25C35.9375 38.7625 35.5125 39.1875 35 39.1875Z" fill="#02233B"/>
<path d="M25 39.1875H20C19.4875 39.1875 19.0625 38.7625 19.0625 38.25C19.0625 37.7375 19.4875 37.3125 20 37.3125H25C25.5125 37.3125 25.9375 37.7375 25.9375 38.25C25.9375 38.7625 25.5125 39.1875 25 39.1875Z" fill="#02233B"/>
</svg>
