<svg width="20" height="20" viewBox="0 0 20 20" fill="none" xmlns="http://www.w3.org/2000/svg">
<path d="M9.25033 18.9584H5.75033C2.49199 18.9584 1.04199 17.5084 1.04199 14.2501V10.7501C1.04199 7.49175 2.49199 6.04175 5.75033 6.04175H9.25033C12.5087 6.04175 13.9587 7.49175 13.9587 10.7501V14.2501C13.9587 17.5084 12.5087 18.9584 9.25033 18.9584ZM5.75033 7.29175C3.16699 7.29175 2.29199 8.16675 2.29199 10.7501V14.2501C2.29199 16.8334 3.16699 17.7084 5.75033 17.7084H9.25033C11.8337 17.7084 12.7087 16.8334 12.7087 14.2501V10.7501C12.7087 8.16675 11.8337 7.29175 9.25033 7.29175H5.75033Z" fill="#292D32"/>
<path d="M14.2503 13.9584H13.3337C12.992 13.9584 12.7087 13.6751 12.7087 13.3334V10.7501C12.7087 8.16675 11.8337 7.29175 9.25033 7.29175H6.66699C6.32533 7.29175 6.04199 7.00842 6.04199 6.66675V5.75008C6.04199 2.49175 7.49199 1.04175 10.7503 1.04175H14.2503C17.5087 1.04175 18.9587 2.49175 18.9587 5.75008V9.25008C18.9587 12.5084 17.5087 13.9584 14.2503 13.9584ZM13.9587 12.7084H14.2503C16.8337 12.7084 17.7087 11.8334 17.7087 9.25008V5.75008C17.7087 3.16675 16.8337 2.29175 14.2503 2.29175H10.7503C8.16699 2.29175 7.29199 3.16675 7.29199 5.75008V6.04175H9.25033C12.5087 6.04175 13.9587 7.49175 13.9587 10.7501V12.7084Z" fill="#292D32"/>
</svg>
