<svg width="55" height="54" viewBox="0 0 55 54" fill="none" xmlns="http://www.w3.org/2000/svg">
<rect x="0.5" width="54" height="54" rx="27" fill="#E5F6FF"/>
<path d="M34.5003 40.2001H20.5003C18.2253 40.2001 16.1503 38.45 15.7753 36.2L14.1128 26.2501C13.8503 24.7001 14.6003 22.7126 15.8378 21.7251L24.5003 14.7875C26.1753 13.4375 28.8128 13.45 30.5003 14.8L39.1628 21.7251C40.3878 22.7126 41.1378 24.7001 40.8878 26.2501L39.2253 36.2C38.8503 38.4125 36.7378 40.2001 34.5003 40.2001ZM27.4878 15.675C26.8253 15.675 26.1628 15.8751 25.6753 16.2626L17.0128 23.2C16.3003 23.775 15.8128 25.0501 15.9628 25.9501L17.6253 35.9C17.8503 37.2125 19.1628 38.3251 20.5003 38.3251H34.5003C35.8378 38.3251 37.1503 37.2125 37.3753 35.8875L39.0378 25.9376C39.1878 25.0376 38.6878 23.75 37.9878 23.1875L29.3253 16.2626C28.8253 15.8751 28.1628 15.675 27.4878 15.675Z" fill="#02233B"/>
<path d="M30.1502 30.9125C29.9127 30.9125 29.6877 30.825 29.5002 30.65C28.2877 29.4875 26.7127 29.4875 25.4877 30.65C25.1127 31.0125 24.5252 31 24.1627 30.625C23.8002 30.25 23.8127 29.6625 24.1877 29.3C26.1252 27.4375 28.8377 27.4375 30.7877 29.3C31.1627 29.6625 31.1752 30.25 30.8127 30.625C30.6502 30.8125 30.4002 30.9125 30.1502 30.9125Z" fill="#02233B"/>
<path d="M32.7995 28.2625C32.562 28.2625 32.3245 28.175 32.1495 28C31.562 27.425 30.8995 26.9624 30.1995 26.6249C28.4495 25.7874 26.537 25.7874 24.7995 26.6249C24.0995 26.9624 23.4495 27.425 22.8495 28C22.487 28.3625 21.887 28.3625 21.5245 27.9875C21.162 27.6125 21.1745 27.025 21.537 26.6625C22.2745 25.9375 23.0995 25.3625 23.987 24.9375C26.2495 23.85 28.7495 23.85 30.9995 24.9375C31.887 25.3625 32.712 25.9375 33.4495 26.6625C33.8245 27.025 33.8245 27.6125 33.462 27.9875C33.287 28.1625 33.0495 28.2625 32.7995 28.2625Z" fill="#02233B"/>
<path d="M27.5002 33.8751C27.1752 33.8751 26.8627 33.75 26.6127 33.5125C26.1252 33.025 26.1252 32.2376 26.6127 31.7501C27.1002 31.2626 27.9002 31.2626 28.3877 31.7501C28.8752 32.2376 28.8752 33.025 28.3877 33.5125C28.1377 33.75 27.8252 33.8751 27.5002 33.8751Z" fill="#02233B"/>
</svg>
