<svg width="33" height="35" viewBox="0 0 33 35" fill="none" xmlns="http://www.w3.org/2000/svg">
<g clip-path="url(#clip0_704_312)">
<path d="M9.15986 3.16591C9.12247 3.09377 9.09966 3.01496 9.09273 2.934C9.0858 2.85304 9.0949 2.7715 9.11949 2.69406C9.14408 2.61661 9.18369 2.54477 9.23606 2.48263C9.28842 2.4205 9.35252 2.36929 9.42468 2.33193C11.6389 1.20594 14.0986 0.648712 16.5819 0.710468C19.0653 0.772225 21.4942 1.45103 23.6497 2.68569C23.7204 2.72635 23.7824 2.7806 23.832 2.84533C23.8817 2.91005 23.918 2.98396 23.9389 3.06279C23.9598 3.14163 23.9649 3.22382 23.9539 3.30464C23.9429 3.38545 23.916 3.46329 23.8748 3.53366L16.7537 15.755C16.6994 15.8485 16.6214 15.9262 16.5275 15.9801C16.4337 16.034 16.3273 16.0623 16.2191 16.0621H16.2034C16.0925 16.0592 15.9845 16.0266 15.8905 15.9678C15.7965 15.909 15.7199 15.8261 15.6688 15.7277L9.15986 3.16591ZM15.8371 19.3215V19.3203L9.32794 6.75846C9.25234 6.61303 9.12228 6.50342 8.96615 6.45355C8.81001 6.40367 8.64049 6.4176 8.49458 6.49228C6.75981 7.38178 5.21779 8.60513 3.95701 10.0921C2.69624 11.5791 1.74153 13.3004 1.1477 15.1573C0.553858 17.0142 0.332581 18.97 0.496563 20.9127C0.660545 22.8553 1.20656 24.7464 2.10326 26.4774C2.99997 28.2085 4.22971 29.7454 5.72191 31C7.21411 32.2546 8.93939 33.2021 10.7987 33.7883C12.6581 34.3744 14.6148 34.5875 16.5567 34.4155C18.4987 34.2434 20.3875 33.6895 22.1148 32.7857C22.2599 32.7097 22.369 32.5794 22.4184 32.4233C22.4678 32.2671 22.4535 32.0978 22.3785 31.9522L15.8371 19.3215ZM23.4672 31.195L23.5167 31.2941C23.5915 31.4402 23.7204 31.5513 23.8759 31.6037C23.9397 31.6249 24.007 31.6333 24.0741 31.6285C24.1721 31.6258 24.2687 31.6048 24.359 31.5666C24.5845 31.4549 24.8036 31.3308 25.0155 31.195C25.6455 30.8295 26.246 30.4153 26.8115 29.9564H22.8231L23.4672 31.195ZM22.179 28.7177H28.1616C28.5463 28.3312 28.9023 27.9172 29.2268 27.4791H21.5349L22.179 28.7177ZM20.9032 26.2404H30.1063C30.36 25.8428 30.5875 25.429 30.7875 25.0018H20.2591L20.9032 26.2404ZM19.615 23.7631H31.3325C31.4969 23.3588 31.6375 22.9452 31.7537 22.5245H18.9709L19.615 23.7631ZM18.3268 21.2859H32.0633C32.1376 20.8771 32.1996 20.4684 32.2367 20.0472H17.6951L18.3268 21.2859ZM24.9659 5.62944C24.8964 5.58621 24.8184 5.55832 24.7373 5.54764C24.6561 5.53696 24.5736 5.54374 24.4952 5.56751C24.415 5.58583 24.3394 5.62062 24.2733 5.66965C24.2072 5.71869 24.152 5.78092 24.1112 5.8524L23.7768 6.42217H26.1674C25.7814 6.13663 25.3803 5.87201 24.9659 5.62944ZM27.6661 7.66081H23.0584L22.34 8.89945H28.8429C28.4764 8.46284 28.0834 8.04918 27.6661 7.66081ZM29.7718 10.1381H21.6092L20.8908 11.3767H30.5274C30.3039 10.9472 30.0515 10.5334 29.7718 10.1381ZM31.122 12.6154H20.1724L19.454 13.854H31.605C31.4677 13.4323 31.3064 13.0187 31.122 12.6154ZM31.9518 15.0927H18.7232L18.0047 16.3313H32.1748C32.1256 15.9143 32.0512 15.5006 31.9518 15.0927ZM32.2987 17.5699H17.2863L16.9891 18.0778C16.9354 18.1672 16.906 18.2691 16.9038 18.3734C16.9017 18.4777 16.9268 18.5807 16.9767 18.6723L17.051 18.8086H32.3234C32.3358 18.6847 32.3358 18.5485 32.3358 18.4246C32.3358 18.1397 32.3234 17.8548 32.2987 17.5699Z" fill="#0A2640"/>
<path d="M8.87537 5.88007C8.64832 5.44985 8.11394 5.28305 7.69711 5.53383C4.39724 7.51919 1.93185 10.6551 0.788437 14.354C-0.441932 18.3341 -0.0408055 22.64 1.90357 26.3244C3.84795 30.0087 7.17631 32.7698 11.1564 34.0002C14.8553 35.1436 18.8354 34.878 22.3367 33.2742C22.7789 33.0716 22.9428 32.5363 22.7157 32.1061L15.7956 18.9931L8.87537 5.88007Z" fill="#0A2640"/>
</g>
<defs>
<clipPath id="clip0_704_312">
<rect width="32.745" height="34.8351" fill="white" transform="translate(-0.191162 0.153778)"/>
</clipPath>
</defs>
</svg>
